<?xml version="1.0" encoding="utf-8"?>
<!-- Generator: Adobe Illustrator 19.2.1, SVG Export Plug-In . SVG Version: 6.00 Build 0)  -->
<svg version="1.1" id="Layer_1" xmlns="http://www.w3.org/2000/svg" xmlns:xlink="http://www.w3.org/1999/xlink" x="0px" y="0px"
	 viewBox="0 0 21.6 25" style="enable-background:new 0 0 21.6 25;" xml:space="preserve">
<style type="text/css">
	.st0{fill:#00CD3B;stroke:#00CD3B;stroke-miterlimit:10;}
</style>
<path class="st0" d="M4.8,23.7c-0.4,0-0.8-0.1-1.1-0.4C3,22.8,2.5,22,2.5,21V4c0-1,0.4-1.9,1.1-2.4c0.7-0.5,1.6-0.5,2.3,0l12.4,8.5
	c0.7,0.5,1.1,1.4,1.1,2.4s-0.4,1.9-1.1,2.4v0L6,23.3C5.6,23.6,5.2,23.7,4.8,23.7z M4.8,3C4.6,3,4.5,3.1,4.4,3.1C4.3,3.2,4,3.5,4,4
	v17c0,0.5,0.3,0.8,0.4,0.9c0.1,0.1,0.5,0.3,0.9,0l12.4-8.5c0.4-0.3,0.4-0.7,0.4-0.9s0-0.6-0.4-0.9L5.3,3.1C5.1,3,5,3,4.8,3z"/>
</svg>
